<?xml version="1.0" encoding="utf-8"?>
<!-- Generator: Adobe Illustrator 19.1.0, SVG Export Plug-In . SVG Version: 6.00 Build 0)  -->
<svg version="1.1" id="Layer_1" xmlns="http://www.w3.org/2000/svg" xmlns:xlink="http://www.w3.org/1999/xlink" x="0px" y="0px"
	 viewBox="0 0 500 500" style="enable-background:new 0 0 500 500;" xml:space="preserve">
<style type="text/css">
	.st0{opacity:0.5;}
</style>
<path class="st0" d="M383.4,168.4c0.4-18.3-30.3-64.8-60.8-69.1c-20-2.8-39.1,0.7-55.5,12.1c-10,6.9-16.6,17.5-20.9,29.4
	c-11.3,30.8,11.1,64.9,42.4,73.4c17.2,4.7,34.4,6.3,52.1,7c36.6,1.6,71.8,9.4,101.9,31.6c28.4,20.9,49.3,47.5,55.5,83.6
	c1.1,6.4,2.1,12.8,1.8,19.4c-3.3-10-5.8-20.3-10.1-29.9c-10.5-23.1-25.4-42.9-47.6-56.2c-2.4-1.5-5.8-1.4-8.7-2.1
	c-0.7,3.1-1.8,6.2-1.9,9.4c-0.3,5.6-1.2,16.9-1.7,16.9c-5.9-8.5-11.7-17-17.6-25.5c-13.4-19.1-31.1-30.9-55-31.9
	c-15-0.6-38.6,16.2-44.5,36.1c-7.6,25.9-4.1,50.7,5.1,74.6c5.5,14.2,25.4,41.8,25.5,43.4c-8.2-5.8-16.7-11.1-24.4-17.4
	c-15.7-12.9-34.3-15.5-53.4-14.9c-32.2,1-50.8,20.5-62.4,48.3c-3.5,8.3-5.8,17.1-9.3,27.7c-5.9-12.2-11.2-22.9-17.2-35.2
	c-20.9,41.8-52.3,66.3-99.8,63.1c-18.3-1.2-34.9-9.1-50.5-20.8c1.6-0.7,23.6,5.1,34.3,6c23.6,2,43.3-7,57.9-25.5
	c6.3-7.9,11.5-17,15.5-26.3c6.7-15.3,7.1-31,2.8-47.6c-6.6-25.4-33.9-47.9-57.8-48.3c-27.8-0.6-50,10.4-66.5,32.8
	c-4,5.5-12,17-12.5,16.8c2.3-6.7,4.1-13.7,7.1-20.2c10.3-22.3,26.1-39.7,47.9-51.2c16-8.4,33.6-9.9,51.4-8.8
	c21.4,1.4,40.7,7.8,55.4,24.3c8.5,9.5,21.8,31.2,23.3,39.4c17.8-36.8,28.1-45.9,48.1-64.7c12.1-11.3,20.1-15.6,27.1-17.6
	c-20.5-3.5-29-7.3-46.3-31.5c-17.5-23.5-18.9-49.7-9.8-75.6c11.4-32.3,34.4-53.6,68.4-62.7c17-4.5,33.7-4.9,50.1-0.3
	c27.4,7.6,49.6,22.5,59.8,50.5C387.1,143,388.7,155.7,383.4,168.4z"/>
</svg>
