<?xml version="1.0" encoding="utf-8"?>
<!-- Generator: Adobe Illustrator 19.1.0, SVG Export Plug-In . SVG Version: 6.00 Build 0)  -->
<svg version="1.1" id="Layer_1" xmlns="http://www.w3.org/2000/svg" xmlns:xlink="http://www.w3.org/1999/xlink" x="0px" y="0px"
	 viewBox="0 0 500 500" style="enable-background:new 0 0 500 500;" xml:space="preserve">
<style type="text/css">
	.st0{opacity:0.5;}
</style>
<path class="st0" d="M383.4,168.4L322.59999999999997,99.30000000000001L267.09999999999997,111.4L246.19999999999996,140.8L288.59999999999997,214.20000000000002L340.7,221.20000000000002L442.6,252.8L498.1,336.4L499.90000000000003,355.79999999999995L489.8,325.9L442.2,269.7L433.5,267.59999999999997L431.6,276.99999999999994L429.90000000000003,293.8999999999999L412.3,268.3999999999999L357.3,236.49999999999991L312.8,272.5999999999999L317.90000000000003,347.19999999999993L343.40000000000003,390.5999999999999L319.00000000000006,373.19999999999993L265.6000000000001,358.29999999999995L203.20000000000007,406.59999999999997L193.90000000000006,434.29999999999995L176.70000000000007,399.09999999999997L76.90000000000008,462.2L26.400000000000077,441.4L60.700000000000074,447.4L118.60000000000008,421.9L134.10000000000008,395.59999999999997L136.9000000000001,347.99999999999994L79.1000000000001,299.69999999999993L12.600000000000094,332.49999999999994L0.10000000000009379,349.29999999999995L7.200000000000093,329.09999999999997L55.100000000000094,277.9L106.50000000000009,269.09999999999997L161.9000000000001,293.4L185.2000000000001,332.79999999999995L233.3000000000001,268.09999999999997L260.4000000000001,250.49999999999997L214.10000000000008,218.99999999999997L204.30000000000007,143.39999999999998L272.70000000000005,80.69999999999997L322.80000000000007,80.39999999999998L382.6000000000001,130.89999999999998L383.4,168.4z"/>
</svg>
